<svg xmlns="http://www.w3.org/2000/svg" width="500" height="500">
  <circle fill="#00e5ff" cx="250" cy="250" r="230" />
  <path fill-opacity=".6" d="M147.08 320.4362v-16.38H86.24l66.78-120.42v114.48h15.66v5.94h-15.66v16.38h-5.94zm0-22.32v-93.78l-52.02 93.78h52.02zm102.6422 24.66h-2.7q-27.9 0-48.24-20.88-20.16-20.88-20.16-48.96 0-28.26 20.52-48.78 20.52-20.7 49.32-20.7t49.32 20.52q20.52 20.52 20.52 49.32 0 18.18-9.18 34.2-9.18 16.02-25.2 25.74-15.84 9.54-34.2 9.54zm62.64-69.48q0-26.64-18.9-45.54-18.72-19.08-45.18-19.08-26.28 0-45 19.08-18.72 18.9-18.72 45.54 0 26.46 18.72 45.36t45 18.9q26.46 0 45.18-18.9 18.9-18.9 18.9-45.36zm76.9444 67.14v-16.38h-60.84l66.78-120.42v114.48h15.66v5.94h-15.66v16.38h-5.94zm0-22.32v-93.78l-52.02 93.78h52.02z" />
  
  <circle fill="#333" fill-opacity=".4" cx="280" cy="215" r="6">
  	<animate attributeName="cy" from="172" to="172" begin="0s" dur="3s" values="215;255;250;260;260;220;215" keySplines="0.1 0.8 0.2 1; 0.1 0.8 0.2 1; 0.1 0.8 0.2 1; 0.1 0.8 0.2 1; 0.1 0.8 0.2 1; 0.1 0.8 0.2 1" keyTimes="0;0.22;0.33;0.55;0.66;0.88;1" calcMode="spline" repeatCount="indefinite" />
  	<animate attributeName="cx" from="172" to="172" begin="0s" dur="2s" values="280;250;235;260;280;150;280" keySplines="0.1 0.8 0.2 1; 0.1 0.8 0.2 1; 0.1 0.8 0.2 1; 0.1 0.8 0.2 1; 0.1 0.8 0.2 1; 0.1 0.8 0.2 1" keyTimes="0;0.22;0.33;0.55;0.66;0.88;1" calcMode="spline" repeatCount="indefinite" />
  </circle>
  <circle fill="#333" fill-opacity=".2" cx="270" cy="225" r="25">
  	<animate attributeName="cx" from="172" to="172" begin="0s" dur="3s" values="270;230;235;260;260;220;270" keySplines="0.1 0.8 0.2 1; 0.1 0.8 0.2 1; 0.1 0.8 0.2 1; 0.1 0.8 0.2 1; 0.1 0.8 0.2 1; 0.1 0.8 0.2 1" keyTimes="0;0.22;0.33;0.55;0.66;0.88;1" calcMode="spline" repeatCount="indefinite" />
  	<animate attributeName="cy" from="172" to="172" begin="0s" dur="4s" values="225;235;250;260;280;260;225" keySplines="0.1 0.8 0.2 1; 0.1 0.8 0.2 1; 0.1 0.8 0.2 1; 0.1 0.8 0.2 1; 0.1 0.8 0.2 1; 0.1 0.8 0.2 1" keyTimes="0;0.22;0.33;0.55;0.66;0.88;1" calcMode="spline" repeatCount="indefinite" />
  </circle>
</svg>
