<svg xmlns="http://www.w3.org/2000/svg" width="100" height="24">
    <path fill="#333" d="M5 14h14l-1.5-4.5h-11L5 14m12.5 5a1.5 1.5 0 0 0 1.5-1.5 1.5 1.5 0 0 0-1.5-1.5 1.5 1.5 0 0 0-1.5 1.5 1.5 1.5 0 0 0 1.5 1.5m-11 0A1.5 1.5 0 0 0 8 17.5 1.5 1.5 0 0 0 6.5 16 1.5 1.5 0 0 0 5 17.5 1.5 1.5 0 0 0 6.5 19M18.92 9L21 15v8a1 1 0 0 1-1 1h-1a1 1 0 0 1-1-1v-1H6v1a1 1 0 0 1-1 1H4a1 1 0 0 1-1-1v-8l2.08-6c.2-.58.77-1 1.42-1h11c.65 0 1.22.42 1.42 1M12 0c2.12 0 4.15.86 5.65 2.35l-1.42 1.42C15.11 2.65 13.58 2 12 2c-1.58 0-3.11.65-4.23 1.77L6.36 2.35C7.85.86 9.88 0 12 0m0 4c1.06 0 2.07.44 2.82 1.18L13.4 6.6c-.37-.37-.87-.6-1.4-.6-.5 0-1.03.23-1.4.6L9.18 5.18C9.93 4.44 10.94 4 12 4z"/>
    <path fill="#333" stroke="#000" stroke-width=".2" d="M35.7708 18.4752h-.18q-1.92 0-3.3-1.42t-1.38-3.32q0-1.92 1.4-3.3 1.4-1.4 3.44-1.4t3.48 1.54v1.02q-.62-.92-1.58-1.46-.94-.54-1.98-.54-1.66 0-2.9 1.24-1.22 1.22-1.22 2.92t1.22 2.94q1.24 1.22 2.9 1.22 1.04 0 1.98-.54.96-.54 1.58-1.48v1.04q-1.4 1.54-3.46 1.54zm14.1512-9.26v9h-.64v-2.24q-.56 1.14-1.68 1.8-1.12.66-2.4.66-1.96 0-3.36-1.38-1.4-1.4-1.4-3.34t1.4-3.32q1.4-1.4 3.36-1.4 1.28 0 2.44.68 1.18.68 1.64 1.8v-2.26h.64zm-8.84 4.52q0 1.68 1.22 2.92 1.24 1.22 2.92 1.22 1.7 0 2.9-1.22 1.2-1.24 1.2-2.92 0-1.7-1.22-2.94-1.2-1.24-2.88-1.24t-2.92 1.26q-1.22 1.24-1.22 2.92zm16.4872-3.3q-.88-.88-1.94-.88t-1.88.8q-.8.8-.8 1.86v6h-.64v-9h.64v1.34q.36-.68 1.12-1.12.76-.44 1.7-.44t1.8.64v.8zm-1.0132 11.74v-.56q1.18 0 2-.8.82-.8.82-2.02v-9.58h.64v9.58q0 1.48-1.02 2.42-1 .96-2.44.96zm3.16-15.14q-.58 0-.58-.54t.58-.54q.58 0 .58.54t-.58.54zm11.964 2.18v9h-.64v-2.24q-.56 1.14-1.68 1.8-1.12.66-2.4.66-1.96 0-3.36-1.38-1.4-1.4-1.4-3.34t1.4-3.32q1.4-1.4 3.36-1.4 1.28 0 2.44.68 1.18.68 1.64 1.8v-2.26h.64zm-8.84 4.52q0 1.68 1.22 2.92 1.24 1.22 2.92 1.22 1.7 0 2.9-1.22 1.2-1.24 1.2-2.92 0-1.7-1.22-2.94-1.2-1.24-2.88-1.24t-2.92 1.26q-1.22 1.24-1.22 2.92zm15.587 4.74h-.18q-1.92 0-3.3-1.42t-1.38-3.32q0-1.92 1.4-3.3 1.4-1.4 3.44-1.4t3.48 1.54v1.02q-.62-.92-1.58-1.46-.94-.54-1.98-.54-1.66 0-2.9 1.24-1.22 1.22-1.22 2.92t1.22 2.94q1.24 1.22 2.9 1.22 1.04 0 1.98-.54.96-.54 1.58-1.48v1.04q-1.4 1.54-3.46 1.54zm5.1713-15.22h.64v9.08l3.56-3.12h.82l-4.12 3.6 5.16 5.4h-.86l-4.56-4.74v4.74h-.64v-14.96z" stroke-linejoin="round" font-size="20" font-family="Poiret One" letter-spacing="0" word-spacing="0" stroke-linecap="round" style="-inkscape-font-specification:'Poiret One'"/>
</svg>